<mxfile host="app.diagrams.net" modified="2024-06-23T04:42:13.306Z" agent="Mozilla/5.0 (Windows NT 10.0; Win64; x64) AppleWebKit/537.36 (KHTML, like Gecko) Chrome/126.0.0.0 Safari/537.36" etag="dVqB9SKHmFR0WZ6232O3" version="24.6.2" type="github">
  <diagram name="Page-1" id="0aqftLWj2g8gStBs3te4">
    <mxGraphModel dx="4766" dy="1843" grid="1" gridSize="10" guides="1" tooltips="1" connect="1" arrows="1" fold="1" page="1" pageScale="1" pageWidth="850" pageHeight="1100" math="0" shadow="0">
      <root>
        <mxCell id="0" />
        <mxCell id="1" parent="0" />
        <mxCell id="kh-eZ2uj51TbhvfRCeD0-1" value="" style="group;dropTarget=0;pointerEvents=0;" vertex="1" parent="1">
          <mxGeometry y="38" width="525" height="98" as="geometry" />
        </mxCell>
        <mxCell id="kh-eZ2uj51TbhvfRCeD0-2" value="Caracole" style="points=[[0.27,0.967,0],[0.741,0.967,0]];html=1;overflow=block;blockSpacing=1;whiteSpace=wrap;fontSize=26.3;fontColor=#a9afb8;fontStyle=1;align=center;spacingLeft=7;spacingRight=7;spacingTop=2;spacing=3;strokeOpacity=0;fillOpacity=0;rounded=1;absoluteArcSize=1;arcSize=12;fillColor=#ffffff;strokeWidth=1.5;lucidId=rSUSPLHiHNOd;" vertex="1" parent="kh-eZ2uj51TbhvfRCeD0-1">
          <mxGeometry width="524" height="67" as="geometry" />
        </mxCell>
        <UserObject label="%creatorName%  |  %date{mmmm d, yyyy}%" placeholders="1" id="kh-eZ2uj51TbhvfRCeD0-3">
          <mxCell style="html=1;overflow=block;blockSpacing=1;whiteSpace=wrap;fontSize=19.8;fontColor=#a9afb8;align=center;spacingLeft=7;spacingRight=7;spacingTop=2;spacing=3;strokeOpacity=0;fillOpacity=0;rounded=1;absoluteArcSize=1;arcSize=12;fillColor=#ffffff;strokeWidth=1.5;lucidId=rSUSpUxmeslX;" vertex="1" parent="kh-eZ2uj51TbhvfRCeD0-1">
            <mxGeometry y="66" width="525" height="32" as="geometry" />
          </mxCell>
        </UserObject>
        <mxCell id="kh-eZ2uj51TbhvfRCeD0-4" value="" style="html=1;jettySize=18;whiteSpace=wrap;fontSize=13;fontFamily=Helvetica;strokeColor=#a9afb8;strokeOpacity=100;strokeWidth=1.5;rounded=0;startArrow=none;endArrow=none;exitX=0.27;exitY=0.967;exitPerimeter=0;entryX=0.741;entryY=0.967;entryPerimeter=0;lucidId=rSUSIJDj9LAL;" edge="1" parent="kh-eZ2uj51TbhvfRCeD0-1" source="kh-eZ2uj51TbhvfRCeD0-2" target="kh-eZ2uj51TbhvfRCeD0-2">
          <mxGeometry width="100" height="100" relative="1" as="geometry">
            <Array as="points">
              <mxPoint x="141" y="85" generated="1" />
              <mxPoint x="388" y="85" generated="1" />
            </Array>
          </mxGeometry>
        </mxCell>
        <mxCell id="kh-eZ2uj51TbhvfRCeD0-5" value="" style="html=1;overflow=block;blockSpacing=1;whiteSpace=wrap;shape=mxgraph.cisco.storage.cloud;verticalLabelPosition=bottom;verticalAlign=top;strokeColor=#036897;fillColor=#ffffff;fontSize=13;align=center;spacing=0;strokeOpacity=100;fillOpacity=100;rounded=1;absoluteArcSize=1;arcSize=12;strokeWidth=0.8;lucidId=Y3g8XBQ-SgjK;" vertex="1" parent="1">
          <mxGeometry x="77" y="180" width="152" height="108" as="geometry" />
        </mxCell>
        <mxCell id="kh-eZ2uj51TbhvfRCeD0-6" value="" style="html=1;overflow=block;blockSpacing=1;whiteSpace=wrap;shape=mxgraph.cisco.security.firewall;verticalLabelPosition=bottom;verticalAlign=top;fillColor=#036897;strokeColor=#ffffff;fontSize=13;align=center;spacing=0;strokeOpacity=100;fillOpacity=100;rounded=1;absoluteArcSize=1;arcSize=12;strokeWidth=0.8;lucidId=a7g8PuFKXKP-;" vertex="1" parent="1">
          <mxGeometry x="410" y="180" width="51" height="110" as="geometry" />
        </mxCell>
        <mxCell id="kh-eZ2uj51TbhvfRCeD0-7" value="&lt;div style=&quot;display: flex; justify-content: center; text-align: center; align-items: baseline; font-size: 0; line-height: 1.25;margin-top: -2px;&quot;&gt;&lt;span&gt;&lt;span style=&quot;font-size:18.5px;color:#333333;&quot;&gt;Firewall&#xa;&lt;/span&gt;&lt;/span&gt;&lt;/div&gt;&lt;div style=&quot;display: flex; justify-content: center; text-align: center; align-items: baseline; font-size: 0; line-height: 1.25;margin-top: -2px;&quot;&gt;&lt;span&gt;&lt;span style=&quot;font-size:18.5px;color:#333333;&quot;&gt;Sonicwall TZ 470&#xa;&lt;/span&gt;&lt;/span&gt;&lt;/div&gt;&lt;div style=&quot;display: flex; justify-content: center; text-align: center; align-items: baseline; font-size: 0; line-height: 1.25;margin-top: -2px;&quot;&gt;&lt;span&gt;&lt;span style=&quot;font-size:18.5px;color:#333333;&quot;&gt;2C:B8:ED:91:33:68&#xa;&lt;/span&gt;&lt;/span&gt;&lt;/div&gt;&lt;div style=&quot;display: flex; justify-content: center; text-align: center; align-items: baseline; font-size: 0; line-height: 1.25;margin-top: -2px;&quot;&gt;&lt;span&gt;&lt;/span&gt;&lt;/div&gt;" style="html=1;overflow=block;blockSpacing=1;whiteSpace=wrap;fontSize=13;spacing=3.8;strokeColor=#333333;strokeOpacity=100;fillOpacity=100;rounded=1;absoluteArcSize=1;arcSize=12;fillColor=#ffffff;strokeWidth=0.8;lucidId=99g8wH0hvZXW;" vertex="1" parent="1">
          <mxGeometry x="354" y="288" width="165" height="118" as="geometry" />
        </mxCell>
        <mxCell id="kh-eZ2uj51TbhvfRCeD0-8" value="&lt;div style=&quot;display: flex; justify-content: center; text-align: center; align-items: baseline; font-size: 0; line-height: 1.25;margin-top: -2px;&quot;&gt;&lt;span&gt;&lt;span style=&quot;font-size:18.5px;color:#333333;&quot;&gt;ISP&#xa;&lt;/span&gt;&lt;/span&gt;&lt;/div&gt;&lt;div style=&quot;display: flex; justify-content: center; text-align: center; align-items: baseline; font-size: 0; line-height: 1.25;margin-top: -2px;&quot;&gt;&lt;span&gt;&lt;span style=&quot;font-size:18.5px;color:#333333;&quot;&gt;Alta Fiber &lt;/span&gt;&lt;/span&gt;&lt;/div&gt;" style="html=1;overflow=block;blockSpacing=1;whiteSpace=wrap;fontSize=13;spacing=3.8;strokeColor=#333333;strokeOpacity=100;fillOpacity=100;rounded=1;absoluteArcSize=1;arcSize=12;fillColor=#ffffff;strokeWidth=0.8;lucidId=m_g86NfTYQP3;" vertex="1" parent="1">
          <mxGeometry x="90" y="297" width="135" height="72" as="geometry" />
        </mxCell>
        <mxCell id="kh-eZ2uj51TbhvfRCeD0-9" value="" style="html=1;overflow=block;blockSpacing=1;whiteSpace=wrap;shape=mxgraph.networks.switch;fillColor=#29AAE1;strokeColor=#ffffff;labelPosition=center;verticalLabelPosition=bottom;align=center;verticalAlign=top;fontSize=13;spacing=0;strokeOpacity=100;fillOpacity=100;rounded=1;absoluteArcSize=1;arcSize=12;strokeWidth=0.8;lucidId=1ah8L4WMI4qe;" vertex="1" parent="1">
          <mxGeometry x="763" y="210" width="117" height="42" as="geometry" />
        </mxCell>
        <mxCell id="kh-eZ2uj51TbhvfRCeD0-10" value="&lt;div style=&quot;display: flex; justify-content: center; text-align: center; align-items: baseline; font-size: 0; line-height: 1.25;margin-top: -2px;&quot;&gt;&lt;span&gt;&lt;span style=&quot;font-size:18.5px;color:#333333;&quot;&gt;USW-Pro-48-PoE-6&#xa;&lt;/span&gt;&lt;/span&gt;&lt;/div&gt;&lt;div style=&quot;display: flex; justify-content: center; text-align: center; align-items: baseline; font-size: 0; line-height: 1.25;margin-top: -2px;&quot;&gt;&lt;span&gt;&lt;span style=&quot;font-size:20px;color:#000000;&quot;&gt;USW Pro 48-PoE&#xa;&lt;/span&gt;&lt;/span&gt;&lt;/div&gt;&lt;div style=&quot;display: flex; justify-content: center; text-align: center; align-items: baseline; font-size: 0; line-height: 1.25;margin-top: -2px;&quot;&gt;&lt;span&gt;&lt;span style=&quot;font-size:20px;color:#000000;&quot;&gt;AC:8B:A9:39:9E:68&#xa;&lt;/span&gt;&lt;a href=&quot;http://192.168.200.6&quot;&gt;&lt;span style=&quot;font-size:18.5px;color:#333333;&quot;&gt;1&lt;/span&gt;&lt;/a&gt;&lt;span style=&quot;font-size:18.5px;color:#333333;&quot;&gt;92.168.200.6&lt;/span&gt;&lt;/span&gt;&lt;/div&gt;" style="html=1;overflow=block;blockSpacing=1;whiteSpace=wrap;fontSize=13;spacing=3.8;strokeColor=#333333;strokeOpacity=100;fillOpacity=100;rounded=1;absoluteArcSize=1;arcSize=12;fillColor=#ffffff;strokeWidth=0.8;lucidId=Kbh88.AFUJRp;" vertex="1" parent="1">
          <mxGeometry x="636" y="269" width="194" height="120" as="geometry" />
        </mxCell>
        <mxCell id="kh-eZ2uj51TbhvfRCeD0-11" value="" style="html=1;overflow=block;blockSpacing=1;whiteSpace=wrap;shape=mxgraph.networks.radio_tower;fillColor=#29AAE1;strokeColor=#29AAE1;labelPosition=center;verticalLabelPosition=bottom;align=center;verticalAlign=top;fontSize=13;spacing=0;strokeOpacity=100;fillOpacity=100;rounded=1;absoluteArcSize=1;arcSize=12;strokeWidth=0.8;lucidId=Pkh89kqLvgq1;" vertex="1" parent="1">
          <mxGeometry x="1299" y="150" width="62" height="99" as="geometry" />
        </mxCell>
        <mxCell id="kh-eZ2uj51TbhvfRCeD0-12" value="&lt;div style=&quot;display: flex; justify-content: center; text-align: center; align-items: baseline; font-size: 0; line-height: 1.25;margin-top: -2px;&quot;&gt;&lt;span&gt;&lt;span style=&quot;font-size:18.5px;color:#333333;&quot;&gt;U6-LR-9&#xa;&lt;/span&gt;&lt;/span&gt;&lt;/div&gt;&lt;div style=&quot;display: flex; justify-content: center; text-align: center; align-items: baseline; font-size: 0; line-height: 1.25;margin-top: -2px;&quot;&gt;&lt;span&gt;&lt;span style=&quot;font-size:18.5px;color:#333333;&quot;&gt;Ubiquiti U6 LR&#xa;&lt;/span&gt;&lt;/span&gt;&lt;/div&gt;&lt;div style=&quot;display: flex; justify-content: center; text-align: center; align-items: baseline; font-size: 0; line-height: 1.25;margin-top: -2px;&quot;&gt;&lt;span&gt;&lt;span style=&quot;font-size:18.5px;color:#333333;&quot;&gt;70:A7:41:96:2C:51&#xa;&lt;/span&gt;&lt;/span&gt;&lt;/div&gt;&lt;div style=&quot;display: flex; justify-content: center; text-align: center; align-items: baseline; font-size: 0; line-height: 1.25;margin-top: -2px;&quot;&gt;&lt;span&gt;&lt;span style=&quot;font-size:18.5px;color:#333333;&quot;&gt;192.168.200.9&#xa;&lt;/span&gt;&lt;/span&gt;&lt;/div&gt;&lt;div style=&quot;display: flex; justify-content: center; text-align: center; align-items: baseline; font-size: 0; line-height: 1.25;margin-top: -2px;&quot;&gt;&lt;span&gt;&lt;/span&gt;&lt;/div&gt;" style="html=1;overflow=block;blockSpacing=1;whiteSpace=wrap;fontSize=13;spacing=3.8;strokeColor=#333333;strokeOpacity=100;fillOpacity=100;rounded=1;absoluteArcSize=1;arcSize=12;fillColor=#ffffff;strokeWidth=0.8;lucidId=3mh8gvcAUwzH;" vertex="1" parent="1">
          <mxGeometry x="1389" y="39" width="225" height="120" as="geometry" />
        </mxCell>
        <mxCell id="kh-eZ2uj51TbhvfRCeD0-13" value="" style="html=1;overflow=block;blockSpacing=1;whiteSpace=wrap;shape=mxgraph.networks.laptop;fillColor=#29AAE1;strokeColor=#ffffff;labelPosition=center;verticalLabelPosition=bottom;align=center;verticalAlign=top;fontSize=13;spacing=0;strokeOpacity=100;fillOpacity=100;rounded=1;absoluteArcSize=1;arcSize=12;strokeWidth=0.8;lucidId=Ush8N6kAyZd_;" vertex="1" parent="1">
          <mxGeometry x="903" y="822" width="110" height="88" as="geometry" />
        </mxCell>
        <mxCell id="kh-eZ2uj51TbhvfRCeD0-14" value="&lt;div style=&quot;display: flex; justify-content: center; text-align: center; align-items: baseline; font-size: 0; line-height: 1.25;margin-top: -2px;&quot;&gt;&lt;span&gt;&lt;span style=&quot;font-size:18.5px;color:#333333;&quot;&gt;Caracole Devices&#xa;&lt;/span&gt;&lt;/span&gt;&lt;/div&gt;&lt;div style=&quot;display: flex; justify-content: center; text-align: center; align-items: baseline; font-size: 0; line-height: 1.25;margin-top: -2px;&quot;&gt;&lt;span&gt;&lt;span style=&quot;font-size:18.5px;color:#333333;&quot;&gt;192.168.200.1 - 192.168.200.255&#xa;&lt;/span&gt;&lt;/span&gt;&lt;/div&gt;&lt;div style=&quot;display: flex; justify-content: center; text-align: center; align-items: baseline; font-size: 0; line-height: 1.25;margin-top: -2px;&quot;&gt;&lt;span&gt;&lt;span style=&quot;font-size:18.5px;color:#333333;&quot;&gt;Wired&lt;/span&gt;&lt;/span&gt;&lt;/div&gt;" style="html=1;overflow=block;blockSpacing=1;whiteSpace=wrap;fontSize=13;spacing=3.8;strokeColor=#333333;strokeOpacity=100;fillOpacity=100;rounded=1;absoluteArcSize=1;arcSize=12;fillColor=#ffffff;strokeWidth=0.8;lucidId=gth8-1KgJGka;" vertex="1" parent="1">
          <mxGeometry x="851" y="926" width="203" height="96" as="geometry" />
        </mxCell>
        <mxCell id="kh-eZ2uj51TbhvfRCeD0-15" value="" style="html=1;overflow=block;blockSpacing=1;whiteSpace=wrap;shape=mxgraph.networks.copier;fillColor=#29AAE1;strokeColor=#ffffff;labelPosition=center;verticalLabelPosition=bottom;align=center;verticalAlign=top;fontSize=13;spacing=0;strokeOpacity=100;fillOpacity=100;rounded=1;absoluteArcSize=1;arcSize=12;strokeWidth=0.8;lucidId=3Ah8zy-lxvEs;" vertex="1" parent="1">
          <mxGeometry x="1271" y="536" width="121" height="102" as="geometry" />
        </mxCell>
        <mxCell id="kh-eZ2uj51TbhvfRCeD0-16" value="" style="html=1;jettySize=18;whiteSpace=wrap;fontSize=13;strokeColor=#333333;strokeOpacity=100;strokeWidth=0.8;rounded=1;arcSize=24;edgeStyle=orthogonalEdgeStyle;startArrow=none;endArrow=none;exitX=1;exitY=0.5;exitPerimeter=0;entryX=0;entryY=0.493;entryPerimeter=0;lucidId=qKh8WJD3BqbR;" edge="1" parent="1" source="kh-eZ2uj51TbhvfRCeD0-5" target="kh-eZ2uj51TbhvfRCeD0-6">
          <mxGeometry width="100" height="100" relative="1" as="geometry">
            <Array as="points" />
          </mxGeometry>
        </mxCell>
        <mxCell id="kh-eZ2uj51TbhvfRCeD0-17" value="" style="html=1;jettySize=18;whiteSpace=wrap;fontSize=13;strokeColor=#333333;strokeOpacity=100;strokeWidth=0.8;rounded=1;arcSize=24;edgeStyle=orthogonalEdgeStyle;startArrow=none;endArrow=none;exitX=1;exitY=0.5;exitPerimeter=0;entryX=0;entryY=0.591;entryPerimeter=0;lucidId=uKh8Mol2fY0F;" edge="1" parent="1" source="kh-eZ2uj51TbhvfRCeD0-6" target="kh-eZ2uj51TbhvfRCeD0-9">
          <mxGeometry width="100" height="100" relative="1" as="geometry">
            <Array as="points" />
          </mxGeometry>
        </mxCell>
        <mxCell id="kh-eZ2uj51TbhvfRCeD0-18" value="" style="html=1;overflow=block;blockSpacing=1;whiteSpace=wrap;shape=mxgraph.networks.server;fillColor=#29AAE1;strokeColor=#ffffff;labelPosition=center;verticalLabelPosition=bottom;align=center;verticalAlign=top;fontSize=13;spacing=0;strokeOpacity=100;fillOpacity=100;rounded=1;absoluteArcSize=1;arcSize=12;strokeWidth=0.8;lucidId=IWh8BVr_vxyz;" vertex="1" parent="1">
          <mxGeometry x="224" y="639" width="55" height="94" as="geometry" />
        </mxCell>
        <mxCell id="kh-eZ2uj51TbhvfRCeD0-19" value="Active Directory, Azure AD connect, File Share" style="html=1;overflow=block;blockSpacing=1;whiteSpace=wrap;fontSize=18.5;fontColor=#333333;align=center;spacing=3.8;strokeColor=#333333;strokeOpacity=100;fillOpacity=100;rounded=1;absoluteArcSize=1;arcSize=12;fillColor=#ffffff;strokeWidth=0.8;lucidId=IWh8FkdKFbcu;" vertex="1" parent="1">
          <mxGeometry x="299" y="626" width="140" height="105" as="geometry" />
        </mxCell>
        <mxCell id="kh-eZ2uj51TbhvfRCeD0-20" value="&lt;div style=&quot;display: flex; justify-content: center; text-align: center; align-items: baseline; font-size: 0; line-height: 1.25;margin-top: -2px;&quot;&gt;&lt;span&gt;&lt;span style=&quot;font-size:19.7px;&quot;&gt;Gayrage&#xa;&lt;/span&gt;&lt;/span&gt;&lt;/div&gt;&lt;div style=&quot;display: flex; justify-content: center; text-align: center; align-items: baseline; font-size: 0; line-height: 1.25;margin-top: -2px;&quot;&gt;&lt;span&gt;&lt;span style=&quot;font-size:17px;&quot;&gt;LANIER MP 3055&#xa;&lt;/span&gt;&lt;span style=&quot;font-size:19.7px;&quot;&gt;192.168.200.244&lt;/span&gt;&lt;/span&gt;&lt;/div&gt;" style="html=1;overflow=block;blockSpacing=1;whiteSpace=wrap;fontSize=13;spacing=3.8;strokeColor=#333333;strokeOpacity=100;fillOpacity=100;rounded=1;absoluteArcSize=1;arcSize=12;fillColor=#ffffff;strokeWidth=0.8;lucidId=UZh8chO9Ovrb;" vertex="1" parent="1">
          <mxGeometry x="1743" y="471" width="150" height="120" as="geometry" />
        </mxCell>
        <mxCell id="kh-eZ2uj51TbhvfRCeD0-21" value="&lt;div style=&quot;display: flex; justify-content: center; text-align: center; align-items: baseline; font-size: 0; line-height: 1.25;margin-top: -2px;&quot;&gt;&lt;span&gt;&lt;span style=&quot;font-size:19.7px;&quot;&gt;Hall of Power&#xa;&lt;/span&gt;&lt;/span&gt;&lt;/div&gt;&lt;div style=&quot;display: flex; justify-content: center; text-align: center; align-items: baseline; font-size: 0; line-height: 1.25;margin-top: -2px;&quot;&gt;&lt;span&gt;&lt;span style=&quot;font-size:17px;&quot;&gt;LANIER IM C3000&#xa;&lt;/span&gt;&lt;span style=&quot;font-size:19.7px;&quot;&gt;192.168.200.200&lt;/span&gt;&lt;/span&gt;&lt;/div&gt;" style="html=1;overflow=block;blockSpacing=1;whiteSpace=wrap;fontSize=13;spacing=3.8;strokeColor=#333333;strokeOpacity=100;fillOpacity=100;rounded=1;absoluteArcSize=1;arcSize=12;fillColor=#ffffff;strokeWidth=0.8;lucidId=YZh8IDFDoCwD;" vertex="1" parent="1">
          <mxGeometry x="1587" y="471" width="150" height="120" as="geometry" />
        </mxCell>
        <mxCell id="kh-eZ2uj51TbhvfRCeD0-22" value="&lt;div style=&quot;display: flex; justify-content: center; text-align: center; align-items: baseline; font-size: 0; line-height: 1.25;margin-top: -2px;&quot;&gt;&lt;span&gt;&lt;span style=&quot;font-size:18.5px;color:#333333;&quot;&gt;USW-Pro-48-PoE-7&#xa;&lt;/span&gt;&lt;/span&gt;&lt;/div&gt;&lt;div style=&quot;display: flex; justify-content: center; text-align: center; align-items: baseline; font-size: 0; line-height: 1.25;margin-top: -2px;&quot;&gt;&lt;span&gt;&lt;span style=&quot;font-size:20px;&quot;&gt;USW Pro 48-PoE&#xa;&lt;/span&gt;&lt;/span&gt;&lt;/div&gt;&lt;div style=&quot;display: flex; justify-content: center; text-align: center; align-items: baseline; font-size: 0; line-height: 1.25;margin-top: -2px;&quot;&gt;&lt;span&gt;&lt;span style=&quot;font-size:20px;&quot;&gt;AC:8B:A9:39:9B:BF&#xa;&lt;/span&gt;&lt;a href=&quot;http://192.168.200.6&quot;&gt;&lt;span style=&quot;font-size:18.5px;color:#333333;&quot;&gt;1&lt;/span&gt;&lt;/a&gt;&lt;span style=&quot;font-size:18.5px;color:#333333;&quot;&gt;92.168.200.7&lt;/span&gt;&lt;/span&gt;&lt;/div&gt;" style="html=1;overflow=block;blockSpacing=1;whiteSpace=wrap;fontSize=13;spacing=3.8;strokeColor=#333333;strokeOpacity=100;fillOpacity=100;rounded=1;absoluteArcSize=1;arcSize=12;fillColor=#ffffff;strokeWidth=0.8;lucidId=80h8iRq5-Y68;" vertex="1" parent="1">
          <mxGeometry x="731" y="40" width="192" height="120" as="geometry" />
        </mxCell>
        <mxCell id="kh-eZ2uj51TbhvfRCeD0-23" value="&lt;div style=&quot;display: flex; justify-content: center; text-align: center; align-items: baseline; font-size: 0; line-height: 1.25;margin-top: -2px;&quot;&gt;&lt;span&gt;&lt;span style=&quot;font-size:18.5px;color:#333333;&quot;&gt;U6-LR-12&#xa;&lt;/span&gt;&lt;/span&gt;&lt;/div&gt;&lt;div style=&quot;display: flex; justify-content: center; text-align: center; align-items: baseline; font-size: 0; line-height: 1.25;margin-top: -2px;&quot;&gt;&lt;span&gt;&lt;span style=&quot;font-size:18.5px;color:#333333;&quot;&gt;Ubiquiti U6 LR&#xa;&lt;/span&gt;&lt;/span&gt;&lt;/div&gt;&lt;div style=&quot;display: flex; justify-content: center; text-align: center; align-items: baseline; font-size: 0; line-height: 1.25;margin-top: -2px;&quot;&gt;&lt;span&gt;&lt;span style=&quot;font-size:18.5px;color:#333333;&quot;&gt;70:A7:41:96:16:69&#xa;&lt;/span&gt;&lt;/span&gt;&lt;/div&gt;&lt;div style=&quot;display: flex; justify-content: center; text-align: center; align-items: baseline; font-size: 0; line-height: 1.25;margin-top: -2px;&quot;&gt;&lt;span&gt;&lt;span style=&quot;font-size:18.5px;color:#333333;&quot;&gt;192.168.200.12&#xa;&lt;/span&gt;&lt;/span&gt;&lt;/div&gt;&lt;div style=&quot;display: flex; justify-content: center; text-align: center; align-items: baseline; font-size: 0; line-height: 1.25;margin-top: -2px;&quot;&gt;&lt;span&gt;&lt;/span&gt;&lt;/div&gt;" style="html=1;overflow=block;blockSpacing=1;whiteSpace=wrap;fontSize=13;spacing=3.8;strokeColor=#333333;strokeOpacity=100;fillOpacity=100;rounded=1;absoluteArcSize=1;arcSize=12;fillColor=#ffffff;strokeWidth=0.8;lucidId=A1h88kWK2~BR;" vertex="1" parent="1">
          <mxGeometry x="1389" y="165" width="225" height="120" as="geometry" />
        </mxCell>
        <mxCell id="kh-eZ2uj51TbhvfRCeD0-24" value="" style="html=1;overflow=block;blockSpacing=1;whiteSpace=wrap;shape=mxgraph.cisco.modems_and_phones.ip_phone;verticalLabelPosition=bottom;verticalAlign=top;fillColor=#036897;strokeColor=#ffffff;fontSize=13;align=center;spacing=0;strokeOpacity=100;fillOpacity=100;rounded=1;absoluteArcSize=1;arcSize=12;strokeWidth=0.8;lucidId=I5h8okHXYxwl;" vertex="1" parent="1">
          <mxGeometry x="1284" y="794" width="135" height="120" as="geometry" />
        </mxCell>
        <mxCell id="kh-eZ2uj51TbhvfRCeD0-25" value="&lt;div style=&quot;display: flex; justify-content: center; text-align: center; align-items: baseline; font-size: 0; line-height: 1.25;margin-top: -2px;&quot;&gt;&lt;span&gt;&lt;a href=&quot;https://app.vonage.com/whats-new&quot;&gt;&lt;span style=&quot;font-size:18.5px;color:#333333;&quot;&gt;https://app.vonage.co&lt;/span&gt;&lt;/a&gt;&lt;a href=&quot;https://app.vonage.com/whats-new&quot;&gt;&lt;span style=&quot;font-size:18.5px;color:#333333;&quot;&gt;m&lt;/span&gt;&lt;/a&gt;&lt;a href=&quot;https://app.vonage.com/whats-new&quot;&gt;&lt;span style=&quot;font-size:18.5px;color:#333333;&quot;&gt;&#xa;&lt;/span&gt;&lt;/a&gt;&lt;/span&gt;&lt;/div&gt;&lt;div style=&quot;display: flex; justify-content: center; text-align: center; align-items: baseline; font-size: 0; line-height: 1.25;margin-top: -2px;&quot;&gt;&lt;span&gt;&lt;span style=&quot;font-size:18.5px;color:#333333;&quot;&gt;&lt;span style=&quot;font-size:18.5px;color:#333333;&quot;&gt;Vonage VOIP&lt;/span&gt;&lt;/span&gt;&lt;/span&gt;&lt;/div&gt;" style="html=1;overflow=block;blockSpacing=1;whiteSpace=wrap;fontSize=13;spacing=3.8;strokeColor=#333333;strokeOpacity=100;fillOpacity=100;rounded=1;absoluteArcSize=1;arcSize=12;fillColor=#ffffff;strokeWidth=0.8;lucidId=Z5h80cES24IQ;" vertex="1" parent="1">
          <mxGeometry x="1253" y="915" width="209" height="74" as="geometry" />
        </mxCell>
        <mxCell id="kh-eZ2uj51TbhvfRCeD0-26" value="&lt;div style=&quot;display: flex; justify-content: center; text-align: center; align-items: baseline; font-size: 0; line-height: 1.25;margin-top: -2px;&quot;&gt;&lt;span&gt;&lt;span style=&quot;font-size:18.5px;color:#333333;&quot;&gt;HPSW15&#xa;&lt;/span&gt;&lt;/span&gt;&lt;/div&gt;&lt;div style=&quot;display: flex; justify-content: center; text-align: center; align-items: baseline; font-size: 0; line-height: 1.25;margin-top: -2px;&quot;&gt;&lt;span&gt;&lt;span style=&quot;font-size:18.5px;color:#333333;&quot;&gt;OfficeConnect 1920S Series Switch 24 EC:EB:B8:CF:A0:14&#xa;&lt;/span&gt;&lt;/span&gt;&lt;/div&gt;&lt;div style=&quot;display: flex; justify-content: center; text-align: center; align-items: baseline; font-size: 0; line-height: 1.25;margin-top: -2px;&quot;&gt;&lt;span&gt;&lt;span style=&quot;font-size:18.5px;color:#333333;&quot;&gt;&lt;a href=&quot;http://192.168.200.15&quot;&gt;&lt;span style=&quot;font-size:18.5px;color:#333333;&quot;&gt;1&lt;/span&gt;&lt;/a&gt;92.168.200.15&lt;/span&gt;&lt;/span&gt;&lt;/div&gt;" style="html=1;overflow=block;blockSpacing=1;whiteSpace=wrap;fontSize=13;spacing=3.8;strokeColor=#333333;strokeOpacity=100;fillOpacity=100;rounded=1;absoluteArcSize=1;arcSize=12;fillColor=#ffffff;strokeWidth=0.8;lucidId=XwyyO_flFTsC;" vertex="1" parent="1">
          <mxGeometry x="931" y="41" width="192" height="120" as="geometry" />
        </mxCell>
        <mxCell id="kh-eZ2uj51TbhvfRCeD0-27" value="&lt;div style=&quot;display: flex; justify-content: center; text-align: center; align-items: baseline; font-size: 0; line-height: 1.25;margin-top: -2px;&quot;&gt;&lt;span&gt;&lt;span style=&quot;font-size:18.5px;color:#333333;&quot;&gt;CaracoleDC1&#xa;&lt;/span&gt;&lt;/span&gt;&lt;/div&gt;&lt;div style=&quot;display: flex; justify-content: center; text-align: center; align-items: baseline; font-size: 0; line-height: 1.25;margin-top: -2px;&quot;&gt;&lt;span&gt;&lt;span style=&quot;font-size:18.5px;color:#333333;&quot;&gt;Offsite Windows Server&#xa;&lt;/span&gt;&lt;/span&gt;&lt;/div&gt;&lt;div style=&quot;display: flex; justify-content: center; text-align: center; align-items: baseline; font-size: 0; line-height: 1.25;margin-top: -2px;&quot;&gt;&lt;span&gt;&lt;span style=&quot;font-size:18.5px;color:#333333;&quot;&gt;10.20.21.10&lt;/span&gt;&lt;/span&gt;&lt;/div&gt;" style="html=1;overflow=block;blockSpacing=1;whiteSpace=wrap;fontSize=13;spacing=3.8;strokeColor=#333333;strokeOpacity=100;fillOpacity=100;rounded=1;absoluteArcSize=1;arcSize=12;fillColor=#ffffff;strokeWidth=0.8;lucidId=M1yy4YKFJK8T;" vertex="1" parent="1">
          <mxGeometry x="44" y="611" width="169" height="120" as="geometry" />
        </mxCell>
        <mxCell id="kh-eZ2uj51TbhvfRCeD0-28" value="&lt;div style=&quot;display: flex; justify-content: center; text-align: center; align-items: baseline; font-size: 0; line-height: 1.25;margin-top: -2px;&quot;&gt;&lt;span&gt;&lt;span style=&quot;font-size:19.7px;&quot;&gt;Moss Room&#xa;&lt;/span&gt;&lt;/span&gt;&lt;/div&gt;&lt;div style=&quot;display: flex; justify-content: center; text-align: center; align-items: baseline; font-size: 0; line-height: 1.25;margin-top: -2px;&quot;&gt;&lt;span&gt;&lt;span style=&quot;font-size:17px;&quot;&gt;LANIER MP 3055&#xa;&lt;/span&gt;&lt;span style=&quot;font-size:19.7px;&quot;&gt;192.168.200.247&lt;/span&gt;&lt;/span&gt;&lt;/div&gt;" style="html=1;overflow=block;blockSpacing=1;whiteSpace=wrap;fontSize=13;spacing=3.8;strokeColor=#333333;strokeOpacity=100;fillOpacity=100;rounded=1;absoluteArcSize=1;arcSize=12;fillColor=#ffffff;strokeWidth=0.8;lucidId=wSzy7eiP0Fbj;" vertex="1" parent="1">
          <mxGeometry x="1743" y="595" width="150" height="120" as="geometry" />
        </mxCell>
        <mxCell id="kh-eZ2uj51TbhvfRCeD0-29" value="&lt;div style=&quot;display: flex; justify-content: center; text-align: center; align-items: baseline; font-size: 0; line-height: 1.25;margin-top: -2px;&quot;&gt;&lt;span&gt;&lt;span style=&quot;font-size:19.7px;&quot;&gt;Case Management&#xa;&lt;/span&gt;&lt;/span&gt;&lt;/div&gt;&lt;div style=&quot;display: flex; justify-content: center; text-align: center; align-items: baseline; font-size: 0; line-height: 1.25;margin-top: -2px;&quot;&gt;&lt;span&gt;&lt;span style=&quot;font-size:17px;&quot;&gt;RICOH IM 2500&#xa;&lt;/span&gt;&lt;span style=&quot;font-size:19.7px;&quot;&gt;192.168.200.246&lt;/span&gt;&lt;/span&gt;&lt;/div&gt;" style="html=1;overflow=block;blockSpacing=1;whiteSpace=wrap;fontSize=13;spacing=3.8;strokeColor=#333333;strokeOpacity=100;fillOpacity=100;rounded=1;absoluteArcSize=1;arcSize=12;fillColor=#ffffff;strokeWidth=0.8;lucidId=wSzy2nM_W~9r;" vertex="1" parent="1">
          <mxGeometry x="1587" y="595" width="150" height="120" as="geometry" />
        </mxCell>
        <mxCell id="kh-eZ2uj51TbhvfRCeD0-30" value="&lt;div style=&quot;display: flex; justify-content: center; text-align: center; align-items: baseline; font-size: 0; line-height: 1.25;margin-top: -2px;&quot;&gt;&lt;span&gt;&lt;span style=&quot;font-size:19.7px;&quot;&gt;Main Hallway&#xa;&lt;/span&gt;&lt;/span&gt;&lt;/div&gt;&lt;div style=&quot;display: flex; justify-content: center; text-align: center; align-items: baseline; font-size: 0; line-height: 1.25;margin-top: -2px;&quot;&gt;&lt;span&gt;&lt;span style=&quot;font-size:17px;&quot;&gt;RICOH IM 2500&#xa;&lt;/span&gt;&lt;span style=&quot;font-size:19.7px;&quot;&gt;192.168.200.245&lt;/span&gt;&lt;/span&gt;&lt;/div&gt;" style="html=1;overflow=block;blockSpacing=1;whiteSpace=wrap;fontSize=13;spacing=3.8;strokeColor=#333333;strokeOpacity=100;fillOpacity=100;rounded=1;absoluteArcSize=1;arcSize=12;fillColor=#ffffff;strokeWidth=0.8;lucidId=xSzyXolV7OMC;" vertex="1" parent="1">
          <mxGeometry x="1429" y="595" width="150" height="120" as="geometry" />
        </mxCell>
        <mxCell id="kh-eZ2uj51TbhvfRCeD0-31" value="&lt;div style=&quot;display: flex; justify-content: center; text-align: center; align-items: baseline; font-size: 0; line-height: 1.25;margin-top: -2px;&quot;&gt;&lt;span&gt;&lt;span style=&quot;font-size:19.7px;&quot;&gt;Finance&#xa;&lt;/span&gt;&lt;/span&gt;&lt;/div&gt;&lt;div style=&quot;display: flex; justify-content: center; text-align: center; align-items: baseline; font-size: 0; line-height: 1.25;margin-top: -2px;&quot;&gt;&lt;span&gt;&lt;span style=&quot;font-size:17px;&quot;&gt;RICOH IM 2500&#xa;&lt;/span&gt;&lt;span style=&quot;font-size:19.7px;&quot;&gt;192.168.200.68&lt;/span&gt;&lt;/span&gt;&lt;/div&gt;" style="html=1;overflow=block;blockSpacing=1;whiteSpace=wrap;fontSize=13;spacing=3.8;strokeColor=#333333;strokeOpacity=100;fillOpacity=100;rounded=1;absoluteArcSize=1;arcSize=12;fillColor=#ffffff;strokeWidth=0.8;lucidId=xSzybJkD1Qmv;" vertex="1" parent="1">
          <mxGeometry x="1429" y="471" width="150" height="120" as="geometry" />
        </mxCell>
        <mxCell id="kh-eZ2uj51TbhvfRCeD0-32" value="&lt;div style=&quot;display: flex; justify-content: center; text-align: center; align-items: baseline; font-size: 0; line-height: 1.25;margin-top: -2px;&quot;&gt;&lt;span&gt;&lt;span style=&quot;font-size:18.5px;color:#333333;&quot;&gt;U6-LR-10&#xa;&lt;/span&gt;&lt;/span&gt;&lt;/div&gt;&lt;div style=&quot;display: flex; justify-content: center; text-align: center; align-items: baseline; font-size: 0; line-height: 1.25;margin-top: -2px;&quot;&gt;&lt;span&gt;&lt;span style=&quot;font-size:18.5px;color:#333333;&quot;&gt;Ubiquiti U6 LR&#xa;&lt;/span&gt;&lt;/span&gt;&lt;/div&gt;&lt;div style=&quot;display: flex; justify-content: center; text-align: center; align-items: baseline; font-size: 0; line-height: 1.25;margin-top: -2px;&quot;&gt;&lt;span&gt;&lt;span style=&quot;font-size:18.5px;color:#333333;&quot;&gt;70:A7:41:96:26:AD&#xa;&lt;/span&gt;&lt;/span&gt;&lt;/div&gt;&lt;div style=&quot;display: flex; justify-content: center; text-align: center; align-items: baseline; font-size: 0; line-height: 1.25;margin-top: -2px;&quot;&gt;&lt;span&gt;&lt;span style=&quot;font-size:18.5px;color:#333333;&quot;&gt;192.168.200.10&#xa;&lt;/span&gt;&lt;/span&gt;&lt;/div&gt;&lt;div style=&quot;display: flex; justify-content: center; text-align: center; align-items: baseline; font-size: 0; line-height: 1.25;margin-top: -2px;&quot;&gt;&lt;span&gt;&lt;/span&gt;&lt;/div&gt;" style="html=1;overflow=block;blockSpacing=1;whiteSpace=wrap;fontSize=13;spacing=3.8;strokeColor=#333333;strokeOpacity=100;fillOpacity=100;rounded=1;absoluteArcSize=1;arcSize=12;fillColor=#ffffff;strokeWidth=0.8;lucidId=tiMCLb_nLmKx;" vertex="1" parent="1">
          <mxGeometry x="1620" y="39" width="248" height="120" as="geometry" />
        </mxCell>
        <mxCell id="kh-eZ2uj51TbhvfRCeD0-33" value="&lt;div style=&quot;display: flex; justify-content: center; text-align: center; align-items: baseline; font-size: 0; line-height: 1.25;margin-top: -2px;&quot;&gt;&lt;span&gt;&lt;span style=&quot;font-size:18.5px;color:#333333;&quot;&gt;U6-LR-13&#xa;&lt;/span&gt;&lt;/span&gt;&lt;/div&gt;&lt;div style=&quot;display: flex; justify-content: center; text-align: center; align-items: baseline; font-size: 0; line-height: 1.25;margin-top: -2px;&quot;&gt;&lt;span&gt;&lt;span style=&quot;font-size:18.5px;color:#333333;&quot;&gt;Ubiquiti U6 Pro&#xa;&lt;/span&gt;&lt;/span&gt;&lt;/div&gt;&lt;div style=&quot;display: flex; justify-content: center; text-align: center; align-items: baseline; font-size: 0; line-height: 1.25;margin-top: -2px;&quot;&gt;&lt;span&gt;&lt;span style=&quot;font-size:18.5px;color:#333333;&quot;&gt;AC:8B:A9:27:46:4D&#xa;&lt;/span&gt;&lt;/span&gt;&lt;/div&gt;&lt;div style=&quot;display: flex; justify-content: center; text-align: center; align-items: baseline; font-size: 0; line-height: 1.25;margin-top: -2px;&quot;&gt;&lt;span&gt;&lt;span style=&quot;font-size:18.5px;color:#333333;&quot;&gt;192.168.200.13&#xa;&lt;/span&gt;&lt;/span&gt;&lt;/div&gt;&lt;div style=&quot;display: flex; justify-content: center; text-align: center; align-items: baseline; font-size: 0; line-height: 1.25;margin-top: -2px;&quot;&gt;&lt;span&gt;&lt;/span&gt;&lt;/div&gt;" style="html=1;overflow=block;blockSpacing=1;whiteSpace=wrap;fontSize=13;spacing=3.8;strokeColor=#333333;strokeOpacity=100;fillOpacity=100;rounded=1;absoluteArcSize=1;arcSize=12;fillColor=#ffffff;strokeWidth=0.8;lucidId=tiMCMrsscXC6;" vertex="1" parent="1">
          <mxGeometry x="1620" y="165" width="248" height="120" as="geometry" />
        </mxCell>
        <mxCell id="kh-eZ2uj51TbhvfRCeD0-34" value="&lt;div style=&quot;display: flex; justify-content: center; text-align: center; align-items: baseline; font-size: 0; line-height: 1.25;margin-top: -2px;&quot;&gt;&lt;span&gt;&lt;span style=&quot;font-size:18.5px;color:#333333;&quot;&gt;U6-LR-15&#xa;&lt;/span&gt;&lt;/span&gt;&lt;/div&gt;&lt;div style=&quot;display: flex; justify-content: center; text-align: center; align-items: baseline; font-size: 0; line-height: 1.25;margin-top: -2px;&quot;&gt;&lt;span&gt;&lt;span style=&quot;font-size:18.5px;color:#333333;&quot;&gt;Ubiquiti U6 LR&#xa;&lt;/span&gt;&lt;/span&gt;&lt;/div&gt;&lt;div style=&quot;display: flex; justify-content: center; text-align: center; align-items: baseline; font-size: 0; line-height: 1.25;margin-top: -2px;&quot;&gt;&lt;span&gt;&lt;span style=&quot;font-size:18.5px;color:#333333;&quot;&gt;60:22:32:A7:48:59&#xa;&lt;/span&gt;&lt;/span&gt;&lt;/div&gt;&lt;div style=&quot;display: flex; justify-content: center; text-align: center; align-items: baseline; font-size: 0; line-height: 1.25;margin-top: -2px;&quot;&gt;&lt;span&gt;&lt;span style=&quot;font-size:18.5px;color:#333333;&quot;&gt;192.168.200.15&#xa;&lt;/span&gt;&lt;/span&gt;&lt;/div&gt;&lt;div style=&quot;display: flex; justify-content: center; text-align: center; align-items: baseline; font-size: 0; line-height: 1.25;margin-top: -2px;&quot;&gt;&lt;span&gt;&lt;/span&gt;&lt;/div&gt;" style="html=1;overflow=block;blockSpacing=1;whiteSpace=wrap;fontSize=13;spacing=3.8;strokeColor=#333333;strokeOpacity=100;fillOpacity=100;rounded=1;absoluteArcSize=1;arcSize=12;fillColor=#ffffff;strokeWidth=0.8;lucidId=uiMCKD5KhYAU;" vertex="1" parent="1">
          <mxGeometry x="1389" y="291" width="225" height="120" as="geometry" />
        </mxCell>
        <mxCell id="kh-eZ2uj51TbhvfRCeD0-35" value="&lt;div style=&quot;display: flex; justify-content: center; text-align: center; align-items: baseline; font-size: 0; line-height: 1.25;margin-top: -2px;&quot;&gt;&lt;span&gt;&lt;span style=&quot;font-size:18.5px;color:#333333;&quot;&gt;UAP-AC-Pro-10&#xa;&lt;/span&gt;&lt;/span&gt;&lt;/div&gt;&lt;div style=&quot;display: flex; justify-content: center; text-align: center; align-items: baseline; font-size: 0; line-height: 1.25;margin-top: -2px;&quot;&gt;&lt;span&gt;&lt;span style=&quot;font-size:18.5px;color:#333333;&quot;&gt;Ubiquiti U6 LR&#xa;&lt;/span&gt;&lt;/span&gt;&lt;/div&gt;&lt;div style=&quot;display: flex; justify-content: center; text-align: center; align-items: baseline; font-size: 0; line-height: 1.25;margin-top: -2px;&quot;&gt;&lt;span&gt;&lt;span style=&quot;font-size:18.5px;color:#333333;&quot;&gt;18:E8:29:96:77:06&#xa;&lt;/span&gt;&lt;/span&gt;&lt;/div&gt;&lt;div style=&quot;display: flex; justify-content: center; text-align: center; align-items: baseline; font-size: 0; line-height: 1.25;margin-top: -2px;&quot;&gt;&lt;span&gt;&lt;span style=&quot;font-size:18.5px;color:#333333;&quot;&gt;192.168.210.10&#xa;&lt;/span&gt;&lt;/span&gt;&lt;/div&gt;&lt;div style=&quot;display: flex; justify-content: center; text-align: center; align-items: baseline; font-size: 0; line-height: 1.25;margin-top: -2px;&quot;&gt;&lt;span&gt;&lt;/span&gt;&lt;/div&gt;" style="html=1;overflow=block;blockSpacing=1;whiteSpace=wrap;fontSize=13;spacing=3.8;strokeColor=#333333;strokeOpacity=100;fillOpacity=100;rounded=1;absoluteArcSize=1;arcSize=12;fillColor=#ffffff;strokeWidth=0.8;lucidId=uiMC.IQTfBIz;" vertex="1" parent="1">
          <mxGeometry x="1620" y="291" width="248" height="120" as="geometry" />
        </mxCell>
        <mxCell id="kh-eZ2uj51TbhvfRCeD0-36" value="&lt;div style=&quot;display: flex; justify-content: center; text-align: center; align-items: baseline; font-size: 0; line-height: 1.25;margin-top: -2px;&quot;&gt;&lt;span&gt;&lt;span style=&quot;font-size:18.5px;color:#333333;&quot;&gt;U6-LR-14&#xa;&lt;/span&gt;&lt;/span&gt;&lt;/div&gt;&lt;div style=&quot;display: flex; justify-content: center; text-align: center; align-items: baseline; font-size: 0; line-height: 1.25;margin-top: -2px;&quot;&gt;&lt;span&gt;&lt;span style=&quot;font-size:18.5px;color:#333333;&quot;&gt;Ubiquiti U6 LR&#xa;&lt;/span&gt;&lt;/span&gt;&lt;/div&gt;&lt;div style=&quot;display: flex; justify-content: center; text-align: center; align-items: baseline; font-size: 0; line-height: 1.25;margin-top: -2px;&quot;&gt;&lt;span&gt;&lt;span style=&quot;font-size:18.5px;color:#333333;&quot;&gt;70:A7:41:91:AF:51&#xa;&lt;/span&gt;&lt;/span&gt;&lt;/div&gt;&lt;div style=&quot;display: flex; justify-content: center; text-align: center; align-items: baseline; font-size: 0; line-height: 1.25;margin-top: -2px;&quot;&gt;&lt;span&gt;&lt;span style=&quot;font-size:18.5px;color:#333333;&quot;&gt;192.168.200.14&#xa;&lt;/span&gt;&lt;/span&gt;&lt;/div&gt;&lt;div style=&quot;display: flex; justify-content: center; text-align: center; align-items: baseline; font-size: 0; line-height: 1.25;margin-top: -2px;&quot;&gt;&lt;span&gt;&lt;/span&gt;&lt;/div&gt;" style="html=1;overflow=block;blockSpacing=1;whiteSpace=wrap;fontSize=13;spacing=3.8;strokeColor=#333333;strokeOpacity=100;fillOpacity=100;rounded=1;absoluteArcSize=1;arcSize=12;fillColor=#ffffff;strokeWidth=0.8;lucidId=wrMCoS8o6Deq;" vertex="1" parent="1">
          <mxGeometry x="1875" y="165" width="245" height="120" as="geometry" />
        </mxCell>
        <mxCell id="kh-eZ2uj51TbhvfRCeD0-37" value="&lt;div style=&quot;display: flex; justify-content: center; text-align: center; align-items: baseline; font-size: 0; line-height: 1.25;margin-top: -2px;&quot;&gt;&lt;span&gt;&lt;span style=&quot;font-size:18.5px;color:#333333;&quot;&gt;U6-LR-11&#xa;&lt;/span&gt;&lt;/span&gt;&lt;/div&gt;&lt;div style=&quot;display: flex; justify-content: center; text-align: center; align-items: baseline; font-size: 0; line-height: 1.25;margin-top: -2px;&quot;&gt;&lt;span&gt;&lt;span style=&quot;font-size:18.5px;color:#333333;&quot;&gt;Ubiquiti U6 LR&#xa;&lt;/span&gt;&lt;/span&gt;&lt;/div&gt;&lt;div style=&quot;display: flex; justify-content: center; text-align: center; align-items: baseline; font-size: 0; line-height: 1.25;margin-top: -2px;&quot;&gt;&lt;span&gt;&lt;span style=&quot;font-size:18.5px;color:#333333;&quot;&gt;70:A7:41:96:12:F9&#xa;&lt;/span&gt;&lt;/span&gt;&lt;/div&gt;&lt;div style=&quot;display: flex; justify-content: center; text-align: center; align-items: baseline; font-size: 0; line-height: 1.25;margin-top: -2px;&quot;&gt;&lt;span&gt;&lt;span style=&quot;font-size:18.5px;color:#333333;&quot;&gt;192.168.200.11&#xa;&lt;/span&gt;&lt;/span&gt;&lt;/div&gt;&lt;div style=&quot;display: flex; justify-content: center; text-align: center; align-items: baseline; font-size: 0; line-height: 1.25;margin-top: -2px;&quot;&gt;&lt;span&gt;&lt;/span&gt;&lt;/div&gt;" style="html=1;overflow=block;blockSpacing=1;whiteSpace=wrap;fontSize=13;spacing=3.8;strokeColor=#333333;strokeOpacity=100;fillOpacity=100;rounded=1;absoluteArcSize=1;arcSize=12;fillColor=#ffffff;strokeWidth=0.8;lucidId=xrMChEH9wHBb;" vertex="1" parent="1">
          <mxGeometry x="1875" y="39" width="245" height="120" as="geometry" />
        </mxCell>
        <mxCell id="kh-eZ2uj51TbhvfRCeD0-38" value="&lt;div style=&quot;display: flex; justify-content: center; text-align: center; align-items: baseline; font-size: 0; line-height: 1.25;margin-top: -2px;&quot;&gt;&lt;span&gt;&lt;span style=&quot;font-size:18.5px;color:#333333;&quot;&gt;UAP-AC-Pro-11&#xa;&lt;/span&gt;&lt;/span&gt;&lt;/div&gt;&lt;div style=&quot;display: flex; justify-content: center; text-align: center; align-items: baseline; font-size: 0; line-height: 1.25;margin-top: -2px;&quot;&gt;&lt;span&gt;&lt;span style=&quot;font-size:18.5px;color:#333333;&quot;&gt;Ubiquiti U6 LR&#xa;&lt;/span&gt;&lt;/span&gt;&lt;/div&gt;&lt;div style=&quot;display: flex; justify-content: center; text-align: center; align-items: baseline; font-size: 0; line-height: 1.25;margin-top: -2px;&quot;&gt;&lt;span&gt;&lt;span style=&quot;font-size:18.5px;color:#333333;&quot;&gt;FC:EC:DA:34:EE:8C&#xa;&lt;/span&gt;&lt;/span&gt;&lt;/div&gt;&lt;div style=&quot;display: flex; justify-content: center; text-align: center; align-items: baseline; font-size: 0; line-height: 1.25;margin-top: -2px;&quot;&gt;&lt;span&gt;&lt;span style=&quot;font-size:18.5px;color:#333333;&quot;&gt;192.168.210.11&#xa;&lt;/span&gt;&lt;/span&gt;&lt;/div&gt;&lt;div style=&quot;display: flex; justify-content: center; text-align: center; align-items: baseline; font-size: 0; line-height: 1.25;margin-top: -2px;&quot;&gt;&lt;span&gt;&lt;/span&gt;&lt;/div&gt;" style="html=1;overflow=block;blockSpacing=1;whiteSpace=wrap;fontSize=13;spacing=3.8;strokeColor=#333333;strokeOpacity=100;fillOpacity=100;rounded=1;absoluteArcSize=1;arcSize=12;fillColor=#ffffff;strokeWidth=0.8;lucidId=xrMCwrjBmkDW;" vertex="1" parent="1">
          <mxGeometry x="1876" y="291" width="245" height="120" as="geometry" />
        </mxCell>
        <mxCell id="kh-eZ2uj51TbhvfRCeD0-39" value="" style="html=1;jettySize=18;whiteSpace=wrap;fontSize=13;strokeColor=#333333;strokeOpacity=100;strokeWidth=0.8;rounded=1;arcSize=24;edgeStyle=orthogonalEdgeStyle;startArrow=none;endArrow=none;exitX=1.002;exitY=0.933;exitPerimeter=0;lucidId=rAMCD8khehK~;" edge="1" parent="1" source="kh-eZ2uj51TbhvfRCeD0-36">
          <mxGeometry width="100" height="100" relative="1" as="geometry">
            <Array as="points" />
            <mxPoint x="2126" y="277" as="targetPoint" />
          </mxGeometry>
        </mxCell>
        <mxCell id="kh-eZ2uj51TbhvfRCeD0-40" value="&lt;div style=&quot;display: flex; justify-content: center; text-align: center; align-items: baseline; font-size: 0; line-height: 1.25;margin-top: -2px;&quot;&gt;&lt;span&gt;&lt;span style=&quot;font-size:18.5px;color:#333333;&quot;&gt;HPSW16&#xa;&lt;/span&gt;&lt;/span&gt;&lt;/div&gt;&lt;div style=&quot;display: flex; justify-content: center; text-align: center; align-items: baseline; font-size: 0; line-height: 1.25;margin-top: -2px;&quot;&gt;&lt;span&gt;&lt;span style=&quot;font-size:18.5px;color:#333333;&quot;&gt;OfficeConnect 1920S Series Switch 24 EC:EB:B8:CF:14:78&#xa;&lt;/span&gt;&lt;/span&gt;&lt;/div&gt;&lt;div style=&quot;display: flex; justify-content: center; text-align: center; align-items: baseline; font-size: 0; line-height: 1.25;margin-top: -2px;&quot;&gt;&lt;span&gt;&lt;span style=&quot;font-size:18.5px;color:#333333;&quot;&gt;&lt;a href=&quot;http://192.168.200.15&quot;&gt;&lt;span style=&quot;font-size:18.5px;color:#333333;&quot;&gt;1&lt;/span&gt;&lt;/a&gt;92.168.200.16&lt;/span&gt;&lt;/span&gt;&lt;/div&gt;" style="html=1;overflow=block;blockSpacing=1;whiteSpace=wrap;fontSize=13;spacing=3.8;strokeColor=#333333;strokeOpacity=100;fillOpacity=100;rounded=1;absoluteArcSize=1;arcSize=12;fillColor=#ffffff;strokeWidth=0.8;lucidId=HFnVUOxKzPzZ;" vertex="1" parent="1">
          <mxGeometry x="841" y="272" width="192" height="120" as="geometry" />
        </mxCell>
        <mxCell id="kh-eZ2uj51TbhvfRCeD0-41" value="&lt;div style=&quot;display: flex; justify-content: center; text-align: center; align-items: baseline; font-size: 0; line-height: 1.25;margin-top: -2px;&quot;&gt;&lt;span&gt;&lt;span style=&quot;font-size:18.5px;color:#333333;&quot;&gt;HPSW17&#xa;&lt;/span&gt;&lt;/span&gt;&lt;/div&gt;&lt;div style=&quot;display: flex; justify-content: center; text-align: center; align-items: baseline; font-size: 0; line-height: 1.25;margin-top: -2px;&quot;&gt;&lt;span&gt;&lt;span style=&quot;font-size:18.5px;color:#333333;&quot;&gt;OfficeConnect 1920S Series Switch 24 EC:EB:B8:CF:19:38&#xa;&lt;/span&gt;&lt;/span&gt;&lt;/div&gt;&lt;div style=&quot;display: flex; justify-content: center; text-align: center; align-items: baseline; font-size: 0; line-height: 1.25;margin-top: -2px;&quot;&gt;&lt;span&gt;&lt;span style=&quot;font-size:18.5px;color:#333333;&quot;&gt;&lt;a href=&quot;http://192.168.200.15&quot;&gt;&lt;span style=&quot;font-size:18.5px;color:#333333;&quot;&gt;1&lt;/span&gt;&lt;/a&gt;92.168.200.17&lt;/span&gt;&lt;/span&gt;&lt;/div&gt;" style="html=1;overflow=block;blockSpacing=1;whiteSpace=wrap;fontSize=13;spacing=3.8;strokeColor=#333333;strokeOpacity=100;fillOpacity=100;rounded=1;absoluteArcSize=1;arcSize=12;fillColor=#ffffff;strokeWidth=0.8;lucidId=IFnVem2~kNm6;" vertex="1" parent="1">
          <mxGeometry x="531" y="41" width="192" height="120" as="geometry" />
        </mxCell>
        <mxCell id="kh-eZ2uj51TbhvfRCeD0-42" value="" style="html=1;jettySize=18;whiteSpace=wrap;fontSize=13;strokeColor=#333333;strokeOpacity=100;strokeWidth=0.8;rounded=1;arcSize=24;edgeStyle=orthogonalEdgeStyle;startArrow=none;endArrow=none;exitX=0.247;exitY=0;exitPerimeter=0;entryX=0;entryY=0.5;entryPerimeter=0;lucidId=y_nV67oTvoPJ;" edge="1" parent="1" source="kh-eZ2uj51TbhvfRCeD0-18" target="kh-eZ2uj51TbhvfRCeD0-5">
          <mxGeometry width="100" height="100" relative="1" as="geometry">
            <Array as="points">
              <mxPoint x="238" y="589" />
              <mxPoint x="43" y="589" />
              <mxPoint x="43" y="400" />
            </Array>
          </mxGeometry>
        </mxCell>
        <mxCell id="kh-eZ2uj51TbhvfRCeD0-43" value="" style="html=1;jettySize=18;whiteSpace=wrap;fontSize=13;strokeColor=#333333;strokeOpacity=100;strokeWidth=0.8;rounded=1;arcSize=24;edgeStyle=orthogonalEdgeStyle;startArrow=none;endArrow=none;exitX=0.999;exitY=0.5;exitPerimeter=0;entryX=0.358;entryY=0.5;entryPerimeter=0;lucidId=xypV8XIYK7M5;" edge="1" parent="1" source="kh-eZ2uj51TbhvfRCeD0-9" target="kh-eZ2uj51TbhvfRCeD0-11">
          <mxGeometry width="100" height="100" relative="1" as="geometry">
            <Array as="points" />
          </mxGeometry>
        </mxCell>
        <mxCell id="kh-eZ2uj51TbhvfRCeD0-44" value="" style="html=1;jettySize=18;whiteSpace=wrap;fontSize=13;strokeColor=#333333;strokeOpacity=100;strokeWidth=0.8;rounded=1;arcSize=24;edgeStyle=orthogonalEdgeStyle;startArrow=none;endArrow=none;exitX=0.999;exitY=0.5;exitPerimeter=0;entryX=0.03;entryY=0.5;entryPerimeter=0;lucidId=DypVmpcHGL3g;" edge="1" parent="1" source="kh-eZ2uj51TbhvfRCeD0-9" target="kh-eZ2uj51TbhvfRCeD0-15">
          <mxGeometry width="100" height="100" relative="1" as="geometry">
            <Array as="points" />
          </mxGeometry>
        </mxCell>
        <mxCell id="kh-eZ2uj51TbhvfRCeD0-45" value="" style="html=1;jettySize=18;whiteSpace=wrap;fontSize=13;strokeColor=#333333;strokeOpacity=100;strokeWidth=0.8;rounded=1;arcSize=24;edgeStyle=orthogonalEdgeStyle;startArrow=none;endArrow=none;exitX=0.999;exitY=0.5;exitPerimeter=0;entryX=0;entryY=0.5;entryPerimeter=0;lucidId=UypVuZbvIibM;" edge="1" parent="1" source="kh-eZ2uj51TbhvfRCeD0-9" target="kh-eZ2uj51TbhvfRCeD0-24">
          <mxGeometry width="100" height="100" relative="1" as="geometry">
            <Array as="points" />
          </mxGeometry>
        </mxCell>
        <mxCell id="kh-eZ2uj51TbhvfRCeD0-46" value="" style="html=1;jettySize=18;whiteSpace=wrap;fontSize=13;strokeColor=#333333;strokeOpacity=100;strokeWidth=0.8;rounded=1;arcSize=24;edgeStyle=orthogonalEdgeStyle;startArrow=none;endArrow=none;exitX=0.999;exitY=0.5;exitPerimeter=0;entryX=0.949;entryY=0.5;entryPerimeter=0;lucidId=2ypVLpofX-~y;" edge="1" parent="1" source="kh-eZ2uj51TbhvfRCeD0-9" target="kh-eZ2uj51TbhvfRCeD0-13">
          <mxGeometry width="100" height="100" relative="1" as="geometry">
            <Array as="points">
              <mxPoint x="1077" y="251" />
              <mxPoint x="1077" y="886" />
            </Array>
          </mxGeometry>
        </mxCell>
      </root>
    </mxGraphModel>
  </diagram>
</mxfile>
